<svg xmlns="http://www.w3.org/2000/svg" id="Layer_1" viewBox="0 0 350 100"><defs><style>      .st0 {        fill: #001e58;      }    </style></defs><path class="st0" d="M237.3,33.6c-5,0-9.2,1.1-12.6,3.3-.4.3-.8.6-1.3.9V10l-17.2,8.5v70.1h13l2-5c3.7,4.3,9.1,6.4,16,6.4s10.1-1.1,14-3.4c3.9-2.3,6.9-5.5,9-9.6,2.1-4.2,3.2-9.3,3.2-15.3,0-8.8-2.3-15.7-7-20.6-4.6-5-11-7.5-19.1-7.5h0ZM244.1,69c-.9,1.9-2.2,3.4-4,4.5-1.7,1-3.8,1.5-6.3,1.5-4.3,0-7.7-1.7-10.4-5.1v-16.5c1.3-1.6,2.7-2.8,4.3-3.7,1.7-1,3.8-1.4,6.1-1.4,3.7,0,6.5,1.2,8.7,3.7,2.1,2.3,3.2,5.6,3.2,9.6s-.5,5.3-1.5,7.3h0Z"></path><path class="st0" d="M194.2,58.2c-2.2-1.2-4.6-2-7.2-2.5-2.5-.5-4.9-.9-7.1-1.2-1.5-.2-2.9-.4-4.3-.7-1.4-.3-2.4-.7-3.2-1.2-.8-.5-1.1-1.3-1.1-2.2s.6-2.1,1.8-2.7c1.3-.7,2.9-1,5.1-1s5.3.4,7.4,1.2c2.2.8,4.3,1.6,6.2,2.8l8.8-10.6c-5.9-4.4-13.4-6.7-22.4-6.7s-9.1.7-12.7,2.1c-3.6,1.4-6.4,3.4-8.5,6.1-2,2.6-2.9,5.7-2.9,9.3s.7,6.1,2,8.2,3.1,3.7,5.3,4.9c2.2,1.1,4.6,1.9,7,2.5,2.5.5,4.8.9,7,1.2s3.3.5,4.7.8c1.4.3,2.6.8,3.4,1.3.8.6,1.3,1.4,1.3,2.5s-.7,2.5-2,3.2-3.2,1.1-5.5,1.1-6.1-.5-8.6-1.4c-2.5-1-4.9-2.3-7.1-3.8l-8.8,10.6c3.3,2.7,7,4.6,11,5.9,4,1.3,8.5,2,13.4,2s9.4-.8,13-2.2c3.8-1.5,6.7-3.6,8.7-6.3,2-2.7,3.1-5.9,3.1-9.7s-.7-6.4-2.1-8.5c-1.4-2.2-3.3-3.9-5.6-5h0Z"></path><path class="st0" d="M132,51v37.7h17.2v-46.8l-17.2,9.1Z"></path><path class="st0" d="M132,51.1v37.7h17.2v-46.8l-17.2,9.1Z"></path><path class="st0" d="M268.5,51.1v37.7h17.2v-46.8l-17.2,9.1Z"></path><path class="st0" d="M292.9,51.1v37.7h17.2v-46.8l-17.2,9.1Z"></path><path class="st0" d="M140.6,19.6c-3.2,0-5.6.9-7.3,2.7-1.7,1.7-2.6,4.1-2.6,7.2s.9,5.5,2.6,7.2c1.7,1.7,4.1,2.6,7.3,2.6s5.6-.9,7.3-2.6c1.8-1.7,2.7-4.1,2.7-7.2s-.9-5.5-2.7-7.2c-1.7-1.7-4.1-2.7-7.3-2.7Z"></path><path class="st0" d="M277,20.1c-3.2,0-5.6.9-7.3,2.7-1.7,1.7-2.6,4.1-2.6,7.2s.9,5.5,2.6,7.2c1.7,1.7,4.1,2.6,7.3,2.6s5.6-.9,7.3-2.6c1.8-1.7,2.7-4.1,2.7-7.2s-.9-5.5-2.7-7.2c-1.7-1.7-4.1-2.7-7.3-2.7Z"></path><path class="st0" d="M301.4,20.1c-3.2,0-5.6.9-7.3,2.7-1.7,1.7-2.6,4.1-2.6,7.2s.9,5.5,2.6,7.2c1.7,1.7,4.1,2.6,7.3,2.6s5.6-.9,7.3-2.6c1.8-1.7,2.7-4.1,2.7-7.2s-.9-5.5-2.7-7.2c-1.7-1.7-4.1-2.7-7.3-2.7h0Z"></path><path class="st0" d="M110.3,37.7c-.9.7-1.7,1.5-2.5,2.4l-2-5.1h-13v53.8h17.2v-33.8c2.9-3.7,7-5.5,12.3-5.5s1.3,0,1.8.1c.6,0,1.2.2,1.8.2l1.3-15.8c-1.2-.2-2.5-.3-3.9-.3-5.1,0-9.4,1.3-12.8,4h0Z"></path><path class="st0" d="M38.6,88.7h18.3v-28.4h25.1v-14.8h-25.1v-15.7h35.9v-15.4h-54.2v74.3h0Z"></path></svg>